<svg width="20" height="20" viewBox="0 0 20 20" fill="none" xmlns="http://www.w3.org/2000/svg">
<path d="M9.89 8.34L8.55 9.04C8.41 8.74 8.24 8.53 8.03 8.41C7.82 8.29 7.62 8.23 7.45 8.23C6.55 8.23 6.11 8.82 6.11 10C6.11 10.54 6.22 10.97 6.45 11.29C6.67 11.61 7 11.77 7.45 11.77C8.03 11.77 8.44 11.5 8.68 10.91L9.91 11.54C9.65 12.03 9.29 12.41 8.82 12.69C8.36 12.97 7.85 13.11 7.29 13.11C6.39 13.11 5.67 12.84 5.12 12.29C4.58 11.74 4.3 11 4.3 10C4.3 9.05 4.58 8.3 5.13 7.74C5.69 7.18 6.39 6.9 7.23 6.9C8.47 6.89 9.36 7.38 9.89 8.34ZM15.66 8.34L14.34 9.04C14.2 8.74 14 8.53 13.81 8.41C13.6 8.29 13.4 8.23 13.21 8.23C12.32 8.23 11.87 8.82 11.87 10C11.87 10.54 12 10.97 12.21 11.29C12.44 11.61 12.77 11.77 13.21 11.77C13.8 11.77 14.21 11.5 14.45 10.91L15.7 11.54C15.42 12.03 15.05 12.41 14.59 12.69C14.12 12.97 13.62 13.11 13.07 13.11C12.17 13.11 11.44 12.84 10.9 12.29C10.36 11.74 10.09 11 10.09 10C10.09 9.05 10.37 8.3 10.92 7.74C11.47 7.18 12.17 6.9 13 6.9C14.26 6.89 15.14 7.38 15.66 8.34ZM10 1.5C12.2543 1.5 14.4163 2.39553 16.0104 3.98959C17.6045 5.58365 18.5 7.74566 18.5 10C18.5 12.2543 17.6045 14.4163 16.0104 16.0104C14.4163 17.6045 12.2543 18.5 10 18.5C7.74566 18.5 5.58365 17.6045 3.98959 16.0104C2.39553 14.4163 1.5 12.2543 1.5 10C1.5 7.74566 2.39553 5.58365 3.98959 3.98959C5.58365 2.39553 7.74566 1.5 10 1.5ZM10 0C8.68678 0 7.38642 0.258658 6.17317 0.761205C4.95991 1.26375 3.85752 2.00035 2.92893 2.92893C1.05357 4.8043 0 7.34784 0 10C0 12.6522 1.05357 15.1957 2.92893 17.0711C3.85752 17.9997 4.95991 18.7362 6.17317 19.2388C7.38642 19.7413 8.68678 20 10 20C12.6522 20 15.1957 18.9464 17.0711 17.0711C18.9464 15.1957 20 12.6522 20 10C20 8.68678 19.7413 7.38642 19.2388 6.17317C18.7362 4.95991 17.9997 3.85752 17.0711 2.92893C16.1425 2.00035 15.0401 1.26375 13.8268 0.761205C12.6136 0.258658 11.3132 0 10 0Z" fill="white"/>
</svg>
