<svg width="14" height="14" viewBox="0 0 14 14" fill="none" xmlns="http://www.w3.org/2000/svg">
<path d="M14 8H0V6H14V8ZM7 0C7.53043 0 8.03914 0.210714 8.41421 0.585786C8.78929 0.960859 9 1.46957 9 2C9 2.53043 8.78929 3.03914 8.41421 3.41421C8.03914 3.78929 7.53043 4 7 4C6.46957 4 5.96086 3.78929 5.58579 3.41421C5.21071 3.03914 5 2.53043 5 2C5 1.46957 5.21071 0.960859 5.58579 0.585786C5.96086 0.210714 6.46957 0 7 0ZM7 10C7.53043 10 8.03914 10.2107 8.41421 10.5858C8.78929 10.9609 9 11.4696 9 12C9 12.5304 8.78929 13.0391 8.41421 13.4142C8.03914 13.7893 7.53043 14 7 14C6.46957 14 5.96086 13.7893 5.58579 13.4142C5.21071 13.0391 5 12.5304 5 12C5 11.4696 5.21071 10.9609 5.58579 10.5858C5.96086 10.2107 6.46957 10 7 10Z" fill="white"/>
</svg>
