<svg width="17" height="17" viewBox="0 0 17 17" fill="none" xmlns="http://www.w3.org/2000/svg">
<path d="M15 0L17 2L2 17L0 15L15 0ZM3.5 0.5C5.16 0.5 6.5 1.84 6.5 3.5C6.5 5.16 5.16 6.5 3.5 6.5C1.84 6.5 0.5 5.16 0.5 3.5C0.5 1.84 1.84 0.5 3.5 0.5ZM13.5 10.5C15.16 10.5 16.5 11.84 16.5 13.5C16.5 15.16 15.16 16.5 13.5 16.5C11.84 16.5 10.5 15.16 10.5 13.5C10.5 11.84 11.84 10.5 13.5 10.5ZM3.5 2.5C2.95 2.5 2.5 2.95 2.5 3.5C2.5 4.05 2.95 4.5 3.5 4.5C4.05 4.5 4.5 4.05 4.5 3.5C4.5 2.95 4.05 2.5 3.5 2.5ZM13.5 12.5C12.95 12.5 12.5 12.95 12.5 13.5C12.5 14.05 12.95 14.5 13.5 14.5C14.05 14.5 14.5 14.05 14.5 13.5C14.5 12.95 14.05 12.5 13.5 12.5Z" fill="black"/>
</svg>
