<svg width="19" height="22" viewBox="0 0 19 22" fill="none" xmlns="http://www.w3.org/2000/svg">
<path d="M13.8261 21.9635C13.4061 21.7935 13.1061 21.4135 13.0361 20.9635C12.9861 20.7035 13.0361 20.5235 13.4361 19.8035C14.9361 17.1035 15.7061 14.0535 15.6661 10.9635C15.7061 7.96352 14.9761 5.03352 13.5361 2.40352C13.3261 1.96352 13.1361 1.54352 12.9761 1.09352C13.0361 0.713516 13.2261 0.363516 13.5361 0.153516C13.9861 -0.0864844 14.5361 -0.0364845 14.9461 0.243516C15.2261 0.603516 15.4661 0.963516 15.6661 1.38352C16.7461 3.46352 17.4761 5.66352 17.8361 7.96352C18.0661 9.77352 18.0961 11.6135 17.9261 13.4335C17.6161 15.7735 16.9261 18.0335 15.8661 20.1435C15.2261 21.4235 14.8661 21.9635 14.4861 21.9635C14.4061 21.9635 14.3161 21.9635 14.2361 21.9635C14.0961 21.9635 13.9661 21.9635 13.8261 21.9635ZM9.46607 19.7535C8.89607 19.5935 8.53607 19.0135 8.65607 18.4335C8.65607 18.3135 8.96607 17.7635 9.24607 17.2035C10.4261 14.9335 10.9361 12.3735 10.7061 9.82351C10.5661 7.99351 10.0361 6.21352 9.16607 4.60352C8.53607 3.34352 8.49607 3.14352 8.86607 2.60352C9.30607 2.11352 10.0361 2.04352 10.5761 2.46352C11.2961 3.52352 11.8661 4.68352 12.2861 5.90352C13.5661 9.69352 13.3661 13.8235 11.7261 17.4635C10.8861 19.3535 10.2961 19.9635 9.46607 19.7035V19.7535ZM4.96607 17.5235C4.60607 17.3635 4.33607 17.0435 4.23607 16.6635C4.23607 16.4635 4.23607 16.2035 4.68607 15.4035C6.17607 12.7035 6.17607 9.42352 4.68607 6.72352C4.03607 5.46352 4.03607 5.20352 4.56607 4.72352C4.75607 4.50352 5.03607 4.39352 5.33607 4.43352C5.97607 4.43352 6.33607 4.74352 6.87607 5.87352C7.72607 7.43352 8.16607 9.18352 8.15607 10.9635C8.19607 12.7735 7.75607 14.5735 6.88607 16.1635C6.34607 17.2135 6.07607 17.4635 5.53607 17.5535C5.34607 17.5735 5.14607 17.5535 4.96607 17.4635V17.5235ZM0.756068 15.3935C0.426068 15.2335 0.166068 14.9635 0.036068 14.6135C-0.063932 14.2635 0.0360681 13.9635 0.436068 13.3235C0.936068 12.6435 1.17607 11.8035 1.12607 10.9635C1.19607 10.1135 0.966068 9.27351 0.476068 8.57351C0.306068 8.32351 0.166068 8.05352 0.036068 7.78352C-0.073932 7.15352 0.346068 6.55352 1.03607 6.43352C1.57607 6.33352 1.95607 6.56352 2.45607 7.32352C3.90607 9.53352 3.90607 12.3835 2.45607 14.5935C1.94607 15.3635 1.36607 15.5935 0.766068 15.3935H0.756068Z" fill="white"/>
</svg>
